<?xml version="1.0" ?><svg style="enable-background:new 0 0 32 32;" version="1.1" viewBox="0 0 32 32" xml:space="preserve" xmlns="http://www.w3.org/2000/svg" xmlns:xlink="http://www.w3.org/1999/xlink"><style type="text/css">
	.st0{display:none;}
	.st1{display:inline;}
	.st2{fill:#f87d39;}
	.st3{fill:#2d71f4;}
</style><g class="st0" id="grid"/><g id="icon"><g><path class="st3" d="M23.78,23.78C21.68,25.88,18.87,27,16,27c-1.35,0-2.71-0.25-4.01-0.76c-0.73-0.28-1.42-0.64-2.06-1.06v1.89    c0,0.55-0.45,1-1,1s-1-0.45-1-1v-4c0-0.09,0.01-0.17,0.04-0.25c0-0.05,0.02-0.09,0.04-0.14c0.1-0.24,0.29-0.43,0.53-0.53    c0.05-0.02,0.09-0.04,0.14-0.04c0.08-0.03,0.16-0.04,0.25-0.04h4c0.55,0,1,0.45,1,1c0,0.55-0.45,1-1,1h-0.91    c0.22,0.11,0.46,0.21,0.69,0.3c3.34,1.31,7.12,0.52,9.65-2.01c2.53-2.53,3.32-6.31,2.02-9.64c-0.21-0.52,0.05-1.1,0.56-1.3    s1.1,0.05,1.3,0.57C27.83,16.06,26.87,20.69,23.78,23.78z"/></g><g><path class="st2" d="M24.07,4.93v4c0,0.09-0.01,0.17-0.04,0.25c0,0.05-0.02,0.09-0.04,0.14c-0.1,0.24-0.29,0.43-0.53,0.53    c-0.05,0.02-0.09,0.04-0.14,0.04c-0.08,0.03-0.16,0.04-0.25,0.04h-4c-0.55,0-1-0.45-1-1s0.45-1,1-1h0.91    c-0.22-0.11-0.46-0.21-0.69-0.3c-3.34-1.31-7.12-0.52-9.65,2.01c-2.53,2.53-3.32,6.31-2.02,9.64c0.21,0.52-0.05,1.1-0.56,1.3    c-0.12,0.05-0.24,0.07-0.37,0.07c-0.39,0-0.77-0.24-0.93-0.64c-1.59-4.07-0.63-8.7,2.46-11.79c3.09-3.09,7.72-4.06,11.79-2.46    c0.73,0.28,1.42,0.64,2.06,1.06V4.93c0-0.55,0.45-1,1-1S24.07,4.38,24.07,4.93z"/></g></g></svg>